#!OML:ASF X:\für Bonn\!DataBase\2005_08_11_Bastian_Final\c3d\Bastian.ASF
:FULLY-SPECIFIED
:DEGREES
139
root -6.11963 17.0939 1.4684 533.126 43.2027 -174.278
lowerback 28.1771 -0.910486 -4.89584
upperback 17.2882 1.23029 1.46422
thorax 4.02359 1.5341 4.20351
lowerneck -14.8132 -13.1297 -22.7074
upperneck -7.96511 -13.8891 37.3622
head 5.60545 -5.26702 15.3424
rclavicle -5.22804e-014 -1.90833e-014
rhumerus -26.8652 6.33302 -86.27
rradius 37.5587
rwrist 2.06305
rhand -13.766 5.21581
rfingers 7.12502
rthumb 12.3547 -24.3991
lclavicle -5.22804e-014 -1.90833e-014
lhumerus -15.7271 -38.421 94.9404
lradius 64.8415
lwrist 8.9947
lhand -16.1922 -7.39861
lfingers 7.12502
lthumb 10.0148 22.3431
rfemur -26.9575 4.21258 23.887
rtibia 67.493
rfoot -16.2481 -11.6272
rtoes -8.40748
lfemur -3.75397 0.983945 -15.828
ltibia 41.0409
lfoot -18.7299 -2.53338
ltoes -9.52202
140
root -6.0862 17.0928 1.39787 532.966 43.4676 -174.374
lowerback 28.1956 -0.985652 -4.8038
upperback 17.3165 1.15384 1.50146
thorax 4.05407 1.49952 4.21138
lowerneck -14.8989 -13.1236 -22.7795
upperneck -7.83004 -13.8963 37.3271
head 5.66041 -5.26348 15.3411
rclavicle -6.0033e-014 5.96354e-015
rhumerus -26.9686 6.02256 -86.0288
rradius 36.86
rwrist 2.05323
rhand -13.7837 5.16274
rfingers 7.12502
rthumb 12.3376 -24.4532
lclavicle -6.0033e-014 5.96354e-015
lhumerus -15.3936 -38.4755 94.8567
lradius 64.9442
lwrist 8.96083
lhand -16.2579 -7.38396
lfingers 7.12502
lthumb 9.95135 22.3608
rfemur -27.3493 4.10105 23.8124
rtibia 66.5163
rfoot -16.6357 -11.5573
rtoes -8.29501
lfemur -3.2243 1.14429 -15.9687
ltibia 40.8665
lfoot -18.9561 -2.47015
ltoes -9.35631
141
root -6.05234 17.0919 1.32761 532.833 43.7322 -174.451
lowerback 28.197 -1.07445 -4.68197
upperback 17.3463 1.0664 1.52757
thorax 4.09413 1.46203 4.19277
lowerneck -14.9394 -13.1108 -22.8667
upperneck -7.73009 -13.891 37.3084
head 5.69786 -5.25909 15.3543
rclavicle -4.59193e-014 8.34896e-015
rhumerus -27.066 5.67498 -85.8129
rradius 36.1712
rwrist 2.11686
rhand -13.8332 5.10803
rfingers 7.12502
rthumb 12.2899 -24.5108
lclavicle -4.59193e-014 8.34896e-015
lhumerus -15.0432 -38.4958 94.7537
lradius 65.0446
lwrist 8.90693
lhand -16.3153 -7.42187
lfingers 7.12502
lthumb 9.89601 22.3255
rfemur -27.7337 3.98034 23.7437
rtibia 65.5033
rfoot -16.9143 -11.4237
rtoes -8.87942
lfemur -2.71382 1.35275 -16.0831
ltibia 40.6992
lfoot -19.1959 -2.43741
ltoes -9.29409
142
root -6.01852 17.0887 1.25787 532.676 43.9962 -174.549
lowerback 28.2251 -1.14864 -4.5278
upperback 17.3698 1.00489 1.53544
thorax 4.111 1.44309 4.12857
lowerneck -14.91 -13.1076 -22.978
upperneck -7.68149 -13.8982 37.3467
head 5.72443 -5.26723 15.3967
rclavicle 4.47266e-014 -4.31363e-014
rhumerus -27.2148 5.30284 -85.6169
rradius 35.5473
rwrist 2.1455
rhand -13.926 4.96958
rfingers 7.12502
rthumb 12.2004 -24.6546
lclavicle 4.47266e-014 -4.31363e-014
lhumerus -14.7014 -38.6356 94.6385
lradius 65.1641
lwrist 8.88341
lhand -16.398 -7.42194
lfingers 7.12502
lthumb 9.81618 22.3293
rfemur -28.0828 3.88234 23.6634
rtibia 64.4622
rfoot -17.1486 -11.2721
rtoes -9.69053
lfemur -2.20531 1.52716 -16.2155
ltibia 40.5477
lfoot -19.4461 -2.39364
ltoes -9.06141
143
root -5.98492 17.0864 1.18815 532.529 44.2391 -174.653
lowerback 28.2184 -1.25031 -4.37389
upperback 17.4271 0.91779 1.54059
thorax 4.18657 1.41218 4.06968
lowerneck -15.0023 -13.1245 -23.0843
upperneck -7.59046 -13.9215 37.3434
head 5.78161 -5.27043 15.4124
rclavicle 5.96354e-015 2.16675e-014
rhumerus -27.2671 4.97912 -85.4184
rradius 34.9055
rwrist 2.16418
rhand -14.0237 4.84078
rfingers 7.12502
rthumb 12.1062 -24.789
lclavicle 5.96354e-015 2.16675e-014
lhumerus -14.2462 -38.6985 94.4892
lradius 65.2513
lwrist 8.82583
lhand -16.4555 -7.38557
lfingers 7.12502
lthumb 9.76067 22.3682
rfemur -28.4262 3.76426 23.5658
rtibia 63.3954
rfoot -17.3649 -11.0832
rtoes -10.4436
lfemur -1.72148 1.71339 -16.351
ltibia 40.3982
lfoot -19.6833 -2.36823
ltoes -8.92903
144
root -5.94958 17.0827 1.11919 532.431 44.4899 -174.728
lowerback 28.1981 -1.34062 -4.19011
upperback 17.4588 0.843327 1.53827
thorax 4.23466 1.38875 3.98127
lowerneck -15.0102 -13.1302 -23.1611
upperneck -7.55929 -13.9323 37.3785
head 5.80756 -5.27637 15.4436
rclavicle 4.11484e-014 -3.75703e-014
rhumerus -27.3732 4.6363 -85.2633
rradius 34.3127
rwrist 2.24495
rhand -14.1328 4.64115
rfingers 7.12502
rthumb 12.001 -24.9948
lclavicle 4.11484e-014 -3.75703e-014
lhumerus -13.8425 -38.7802 94.3452
lradius 65.3382
lwrist 8.73411
lhand -16.5031 -7.40369
lfingers 7.12502
lthumb 9.71474 22.3523
rfemur -28.777 3.66548 23.4993
rtibia 62.3104
rfoot -17.5504 -10.8319
rtoes -11.1452
lfemur -1.27422 1.91554 -16.4561
ltibia 40.2691
lfoot -19.9248 -2.31534
ltoes -8.87518
145
root -5.91477 17.0794 1.04956 532.287 44.7181 -174.835
lowerback 28.2132 -1.44399 -4.04335
upperback 17.4964 0.747126 1.54879
thorax 4.27747 1.35206 3.93324
lowerneck -15.0774 -13.1308 -23.2571
upperneck -7.47109 -13.9357 37.3817
head 5.85373 -5.27245 15.4661
rclavicle 3.81667e-014 -6.81831e-014
rhumerus -27.472 4.36053 -85.061
rradius 33.7562
rwrist 2.3543
rhand -14.122 4.43374
rfingers 7.12502
rthumb 12.0115 -25.2016
lclavicle 3.81667e-014 -6.81831e-014
lhumerus -13.4003 -38.8513 94.22
lradius 65.3834
lwrist 8.63116
lhand -16.6269 -7.40638
lfingers 7.12502
lthumb 9.59533 22.3551
rfemur -29.0839 3.55585 23.3978
rtibia 61.2153
rfoot -17.6719 -10.6859
rtoes -11.7658
lfemur -0.803951 2.05669 -16.5994
ltibia 40.1468
lfoot -20.1868 -2.28856
ltoes -8.60476
146
root -5.87906 17.074 0.980518 532.211 44.9334 -174.913
lowerback 28.1767 -1.54993 -3.83357
upperback 17.5324 0.660055 1.53814
thorax 4.33773 1.32545 3.82399
lowerneck -15.1517 -13.1481 -23.2924
upperneck -7.41406 -13.9612 37.3998
head 5.89682 -5.27791 15.4757
rclavicle -8.11041e-014 4.77083e-014
rhumerus -27.5784 4.02556 -84.9086
rradius 33.2392
rwrist 2.51272
rhand -14.1471 4.19812
rfingers 7.12502
rthumb 11.9873 -25.4386
lclavicle -8.11041e-014 4.77083e-014
lhumerus -12.9334 -38.969 94.0552
lradius 65.444
lwrist 8.60764
lhand -16.6618 -7.38433
lfingers 7.12502
lthumb 9.56168 22.3787
rfemur -29.3977 3.50762 23.2872
rtibia 60.1245
rfoot -17.8521 -10.5754
rtoes -12.0155
lfemur -0.409607 2.2283 -16.7081
ltibia 40.0511
lfoot -20.4445 -2.28305
ltoes -8.47522
147
root -5.84255 17.0674 0.912639 532.144 45.1538 -174.959
lowerback 28.165 -1.6496 -3.65402
upperback 17.56 0.572134 1.55852
thorax 4.37779 1.29385 3.76587
lowerneck -15.1948 -13.1434 -23.3467
upperneck -7.34773 -13.9601 37.3863
head 5.9248 -5.27517 15.4823
rclavicle -2.74323e-014 -7.95139e-016
rhumerus -27.7092 3.79465 -84.7293
rradius 32.7696
rwrist 2.62674
rhand -14.1029 3.96168
rfingers 7.12502
rthumb 12.0299 -25.6726
lclavicle -2.74323e-014 -7.95139e-016
lhumerus -12.4578 -39.0501 93.9405
lradius 65.4389
lwrist 8.54744
lhand -16.7715 -7.38267
lfingers 7.12502
lthumb 9.45579 22.3852
rfemur -29.6677 3.53076 23.1723
rtibia 59.0339
rfoot -18.1392 -10.3571
rtoes -11.6607
lfemur 0.00322298 2.39658 -16.7858
ltibia 39.961
lfoot -20.716 -2.27509
ltoes -8.34545
148
root -5.8056 17.0601 0.844313 532.043 45.3478 -175.068
lowerback 28.1354 -1.7562 -3.48188
upperback 17.6082 0.480091 1.54235
thorax 4.4511 1.26335 3.6735
lowerneck -15.3229 -13.1614 -23.3366
upperneck -7.27486 -13.984 37.3905
head 5.97513 -5.27377 15.4752
rclavicle -4.05521e-014 3.85642e-014
rhumerus -27.7814 3.51223 -84.5842
rradius 32.3026
rwrist 2.77853
rhand -14.0925 3.71769
rfingers 7.12502
rthumb 12.0399 -25.916
lclavicle -4.05521e-014 3.85642e-014
lhumerus -11.9023 -39.1932 93.7357
lradius 65.4312
lwrist 8.53777
lhand -16.9005 -7.34708
lfingers 7.12502
lthumb 9.33138 22.4264
rfemur -29.9338 3.54989 22.9938
rtibia 57.942
rfoot -18.42 -10.0958
rtoes -11.3604
lfemur 0.38617 2.54779 -16.9194
ltibia 39.8881
lfoot -20.9854 -2.26962
ltoes -8.21719
149
root -5.76802 17.0531 0.776314 531.974 45.5369 -175.145
lowerback 28.1172 -1.85627 -3.31745
upperback 17.6304 0.387103 1.55659
thorax 4.48792 1.22819 3.61806
lowerneck -15.3924 -13.1631 -23.3498
upperneck -7.20111 -13.9936 37.3657
head 6.00781 -5.27334 15.4644
rclavicle 2.13694e-014 -1.19271e-015
rhumerus -27.9384 3.34651 -84.4152
rradius 31.9132
rwrist 2.82631
rhand -14.0351 3.50074
rfingers 7.12502
rthumb 12.0953 -26.1297
lclavicle 2.13694e-014 -1.19271e-015
lhumerus -11.4178 -39.2929 93.6141
lradius 65.427
lwrist 8.4909
lhand -17.0224 -7.29034
lfingers 7.12502
lthumb 9.21377 22.4884
rfemur -30.2061 3.59454 22.8321
rtibia 56.8338
rfoot -18.6779 -9.8203
rtoes -11.171
lfemur 0.766681 2.67663 -17.0264
ltibia 39.8105
lfoot -21.2577 -2.27226
ltoes -7.97325
150
root -5.72872 17.0469 0.708482 531.906 45.7193 -175.199
lowerback 28.0975 -1.95045 -3.14414
upperback 17.6767 0.311706 1.57307
thorax 4.55255 1.20485 3.55702
lowerneck -15.5033 -13.1704 -23.3091
upperneck -7.13783 -14.005 37.3357
head 6.03996 -5.26898 15.4376
rclavicle -3.08116e-014 -2.48481e-015
rhumerus -28.0531 3.15224 -84.2477
rradius 31.5178
rwrist 2.88471
rhand -14.0191 3.3478
rfingers 7.12502
rthumb 12.1107 -26.2817
lclavicle -3.08116e-014 -2.48481e-015
lhumerus -10.8444 -39.4579 93.4288
lradius 65.3957
lwrist 8.54473
lhand -17.1201 -7.26448
lfingers 7.12502
lthumb 9.11943 22.5184
rfemur -30.4316 3.65691 22.6855
rtibia 55.7037
rfoot -18.9127 -9.55164
rtoes -11.4987
lfemur 1.16254 2.81996 -17.107
ltibia 39.7326
lfoot -21.5311 -2.25376
ltoes -7.90519
